<?xml version="1.0" encoding="UTF-8" standalone="no"?><svg version="1.1" id="Layer_1" x="0px" y="0px" viewBox="51.9,36.3 250.19999 289.79999" xml:space="preserve" sodipodi:docname="Minecraft_Favicon copy.svg" inkscape:version="1.3-beta (cedbd6c, 2023-05-28)" xmlns:inkscape="http://www.inkscape.org/namespaces/inkscape" xmlns:sodipodi="http://sodipodi.sourceforge.net/DTD/sodipodi-0.dtd" xmlns:xlink="http://www.w3.org/1999/xlink" xmlns="http://www.w3.org/2000/svg" xmlns:svg="http://www.w3.org/2000/svg"><sodipodi:namedview id="namedview1" pagecolor="#505050" bordercolor="#eeeeee" borderopacity="0" inkscape:showpageshadow="0" inkscape:pageopacity="0" inkscape:pagecheckerboard="0" inkscape:deskcolor="#404040" showgrid="false" /><defs id="defs1"><filter style="color-interpolation-filters:sRGB;" inkscape:label="Invert" id="filter1" x="0" y="0" width="1" height="1"><feColorMatrix values="-1 0 0 0 1 0 -1 0 0 1 0 0 -1 0 1 -0.21 -0.72 -0.07 2 0 " result="color2" id="feColorMatrix1" /></filter></defs><path d="M 302.1,253.9 V 108.9 L 177,36.3 51.9,108.9 V 253.7 L 177,326.1" id="path1" style="display:inline;fill:#41352b" /><g id="g3"><polygon points="67.6,136 67.6,145.1 83.2,154.1 83.2,163.2 91,167.7 91,140.6 98.8,145.1 98.8,163.2 106.7,167.7 106.7,158.7 114.5,163.2 114.5,181.3 122.3,185.9 122.3,176.8 130.1,181.3 130.1,190.4 137.9,194.9 137.9,185.9 145.7,190.4 145.7,181.4 153.6,185.9 153.6,194.9 169.2,204 169.2,195 177,199.5 177,108.9 51.9,108.9 51.9,136 59.8,140.5 59.8,131.5 " id="polygon2" style="fill:#6cae47" /><path d="M 177,108.9 V 199.5 208.5 L 184.8,204 V 195 L 192.6,190.4 V 199.5 L 200.4,195 208.2,190.4 C 208.2,190.4 208.8,197.5 208.4,199.1 209.8,198 216,195 216,195 V 167.8 L 223.8,163.3 V 181.4 L 231.6,176.9 V 167.8 L 239.5,163.3 V 181.4 L 247.3,176.9 V 167.8 L 255.1,163.3 V 172.3 L 262.9,167.8 V 158.7 L 270.7,154.2 V 145.1 L 278.6,140.6 V 149.7 L 294.2,140.6 V 131.5 L 302.1,127 V 108.9 Z" id="path3" style="fill:#41693b" /></g><polygon points="177,181.4 51.9,108.9 177,36.3 302.1,108.9 " id="polygon3" style="fill:#9acb62" /><g id="g259"><polygon points="200.4,131.5 192.6,136.1 200.4,140.6 208.3,136.1 " id="polygon4" style="fill:#a0cf66" /><polygon points="208.3,127 200.4,131.5 208.3,136.1 216.1,131.5 " id="polygon5" style="fill:#96cb5e" /><polygon points="177,145.1 169.2,140.6 161.4,145.1 169.2,149.7 " id="polygon6" style="fill:#93ca5d" /><polygon points="216.1,122.5 208.3,127 216.1,131.5 223.9,127 " id="polygon7" style="fill:#b7d874" /><polygon points="200.4,86.2 208.3,90.7 216.1,86.2 208.3,81.7 " id="polygon8" style="fill:#70b447" /><polygon points="184.8,140.6 177,145.1 184.8,149.7 192.6,145.1 " id="polygon9" style="fill:#8bc758" /><polygon points="192.6,136.1 184.8,140.6 192.6,145.1 200.4,140.6 " id="polygon10" style="fill:#b4d773" /><polygon points="223.9,117.9 216.1,122.5 223.9,127 231.7,122.5 " id="polygon11" style="fill:#94cb5e" /><polygon points="216.1,95.3 223.9,99.8 231.7,95.3 223.9,90.7 " id="polygon12" style="fill:#94cb5e" /><polygon points="223.9,127 216.1,131.5 223.9,136.1 231.7,131.5 " id="polygon13" style="fill:#bfdb7b" /><polygon points="208.3,90.7 216.1,95.3 223.9,90.7 216.1,86.2 " id="polygon14" style="fill:#89c755" /><polygon points="231.7,113.4 223.9,117.9 231.7,122.5 239.5,117.9 " id="polygon15" style="fill:#8bc758" /><polygon points="239.5,108.9 231.7,113.4 239.5,117.9 247.3,113.4 " id="polygon16" style="fill:#9fcf67" /><polygon points="231.7,104.3 239.5,108.9 247.3,104.3 239.5,99.8 " id="polygon17" style="fill:#97cc61" /><polygon points="239.5,108.9 247.3,113.4 255.2,108.9 247.3,104.3 " id="polygon18" style="fill:#a8d26a" /><polygon points="177,145.1 169.2,149.7 177,154.2 184.8,149.7 " id="polygon19" style="fill:#a7d26c" /><polygon points="169.2,140.6 161.4,136.1 153.5,140.6 161.4,145.1 " id="polygon20" style="fill:#a7d26c" /><polygon points="130.1,99.8 137.9,95.3 130.1,90.7 122.3,95.3 " id="polygon21" style="fill:#96cb5e" /><polygon points="122.3,104.3 130.1,99.8 122.3,95.3 114.5,99.8 " id="polygon22" style="fill:#85c553" /><polygon points="153.5,86.2 161.4,81.7 153.5,77.1 145.7,81.7 " id="polygon23" style="fill:#9bcd62" /><polygon points="161.4,81.7 169.2,77.1 161.4,72.6 153.5,77.1 " id="polygon24" style="fill:#9bcd62" /><polygon points="114.5,108.9 122.3,104.3 114.5,99.8 106.6,104.3 " id="polygon25" style="fill:#b7d876" /><polygon points="169.2,77.1 177,72.6 169.2,68.1 161.4,72.6 " id="polygon26" style="fill:#89c755" /><polygon points="137.9,95.3 145.7,90.7 137.9,86.2 130.1,90.7 " id="polygon27" style="fill:#9bcd62" /><polygon points="114.5,108.9 106.6,104.3 98.8,108.9 106.6,113.4 " id="polygon28" style="fill:#93ca5b" /><polygon points="153.5,131.5 145.7,127 137.9,131.5 145.7,136.1 " id="polygon29" style="fill:#89c755" /><polygon points="161.4,136.1 153.5,131.5 145.7,136.1 153.5,140.6 " id="polygon30" style="fill:#89c755" /><polygon points="145.7,127 137.9,122.5 130.1,127 137.9,131.5 " id="polygon31" style="fill:#81c44f" /><polygon points="122.3,113.4 114.5,108.9 106.6,113.4 114.5,117.9 " id="polygon32" style="fill:#8bc758" /><polygon points="130.1,117.9 122.3,113.4 114.5,117.9 122.3,122.5 " id="polygon33" style="fill:#94cb5e" /><polygon points="137.9,122.5 130.1,117.9 122.3,122.5 130.1,127 " id="polygon34" style="fill:#94cb5e" /><polygon points="145.7,90.7 153.5,86.2 145.7,81.7 137.9,86.2 " id="polygon35" style="fill:#94cb60" /><polygon points="169.2,149.7 161.4,145.1 153.5,149.7 161.4,154.2 " id="polygon36" style="fill:#8bc758" /><polygon points="153.5,140.6 145.7,136.1 137.9,140.6 145.7,145.1 " id="polygon37" style="fill:#9bcd64" /><polygon points="114.5,117.9 106.6,113.4 98.8,117.9 106.6,122.5 " id="polygon38" style="fill:#add470" /><polygon points="145.7,136.1 137.9,131.5 130.1,136.1 137.9,140.6 " id="polygon39" style="fill:#9bcd64" /><polygon points="137.9,131.5 130.1,127 122.3,131.5 130.1,136.1 " id="polygon40" style="fill:#9bcd64" /><polygon points="122.3,122.5 114.5,117.9 106.6,122.5 114.5,127 " id="polygon41" style="fill:#b7d876" /><polygon points="130.1,127 122.3,122.5 114.5,127 122.3,131.5 " id="polygon42" style="fill:#a4d069" /><polygon points="161.4,145.1 153.5,140.6 145.7,145.1 153.5,149.7 " id="polygon43" style="fill:#9bcd64" /><polygon points="200.4,140.6 192.6,145.1 200.4,149.7 208.3,145.1 " id="polygon44" style="fill:#8bc758" /><polygon points="208.3,136.1 200.4,140.6 208.3,145.1 216.1,140.6 " id="polygon45" style="fill:#b4d771" /><polygon points="177,154.2 169.2,149.7 161.4,154.2 169.2,158.7 " id="polygon46" style="fill:#8bc758" /><polygon points="216.1,131.5 208.3,136.1 216.1,140.6 223.9,136.1 " id="polygon47" style="fill:#a5d16a" /><polygon points="177,154.2 169.2,158.7 177,163.3 184.8,158.7 " id="polygon48" style="fill:#bad979" /><polygon points="184.8,149.7 177,154.2 184.8,158.7 192.6,154.2 " id="polygon49" style="fill:#93ca5d" /><polygon points="192.6,145.1 184.8,149.7 192.6,154.2 200.4,149.7 " id="polygon50" style="fill:#b4d773" /><polygon points="98.8,108.9 91,104.3 83.2,108.9 91,113.4 " id="polygon51" style="fill:#81c44f" /><polygon points="161.4,72.6 169.2,68.1 161.4,63.5 153.5,68.1 " id="polygon52" style="fill:#89c755" /><polygon points="153.5,77.1 161.4,72.6 153.5,68.1 145.7,72.6 " id="polygon53" style="fill:#94cb60" /><polygon points="169.2,68.1 177,63.5 169.2,59 161.4,63.5 " id="polygon54" style="fill:#b4d773" /><polygon points="145.7,81.7 153.5,77.1 145.7,72.6 137.9,77.1 " id="polygon55" style="fill:#b4d773" /><polygon points="184.8,77.1 192.6,81.7 200.4,77.1 192.6,72.6 " id="polygon56" style="fill:#97cc61" /><polygon points="169.2,68.1 177,72.6 184.8,68.1 177,63.5 " id="polygon57" style="fill:#b4d773" /><polygon points="177,72.6 184.8,77.1 192.6,72.6 184.8,68.1 " id="polygon58" style="fill:#8bc758" /><polygon points="106.6,113.4 98.8,108.9 91,113.4 98.8,117.9 " id="polygon59" style="fill:#93ca5b" /><polygon points="98.8,108.9 106.6,104.3 98.8,99.8 91,104.3 " id="polygon60" style="fill:#93ca5b" /><polygon points="106.6,104.3 114.5,99.8 106.6,95.3 98.8,99.8 " id="polygon61" style="fill:#85c553" /><polygon points="192.6,81.7 200.4,86.2 208.3,81.7 200.4,77.1 " id="polygon62" style="fill:#9fcf67" /><polygon points="122.3,95.3 130.1,90.7 122.3,86.2 114.5,90.7 " id="polygon63" style="fill:#b4d773" /><polygon points="130.1,90.7 137.9,86.2 130.1,81.7 122.3,86.2 " id="polygon64" style="fill:#b4d773" /><polygon points="137.9,86.2 145.7,81.7 137.9,77.1 130.1,81.7 " id="polygon65" style="fill:#9fce62" /><polygon points="114.5,99.8 122.3,95.3 114.5,90.7 106.6,95.3 " id="polygon66" style="fill:#94cb5e" /><polygon points="223.9,99.8 231.7,104.3 239.5,99.8 231.7,95.3 " id="polygon67" style="fill:#a0cf66" /><polygon points="145.7,108.9 153.5,104.3 145.7,99.8 137.9,104.3 " id="polygon68" style="fill:#b7d874" /><polygon points="169.2,95.3 177,99.8 184.8,95.3 177,90.7 " id="polygon69" style="fill:#a1cf65" /><polygon points="169.2,122.5 161.4,117.9 153.5,122.5 161.4,127 " id="polygon70" style="fill:#a5d16a" /><polygon points="161.4,117.9 153.5,113.4 145.7,117.9 153.5,122.5 " id="polygon71" style="fill:#8bc758" /><polygon points="145.7,108.9 137.9,104.3 130.1,108.9 137.9,113.4 " id="polygon72" style="fill:#8bc758" /><polygon points="200.4,104.3 208.3,108.9 216.1,104.3 208.3,99.8 " id="polygon73" style="fill:#8bc758" /><polygon points="169.2,95.3 177,90.7 169.2,86.2 161.4,90.7 " id="polygon74" style="fill:#a1cf65" /><polygon points="161.4,99.8 169.2,95.3 161.4,90.7 153.5,95.3 " id="polygon75" style="fill:#93ca5b" /><polygon points="153.5,113.4 145.7,108.9 137.9,113.4 145.7,117.9 " id="polygon76" style="fill:#96cb5e" /><polygon points="208.3,108.9 200.4,113.4 208.3,117.9 216.1,113.4 " id="polygon77" style="fill:#96cb5e" /><polygon points="200.4,113.4 192.6,117.9 200.4,122.5 208.3,117.9 " id="polygon78" style="fill:#8bc758" /><polygon points="208.3,108.9 216.1,113.4 223.9,108.9 216.1,104.3 " id="polygon79" style="fill:#a5d16a" /><polygon points="192.6,117.9 184.8,122.5 192.6,127 200.4,122.5 " id="polygon80" style="fill:#8bc758" /><polygon points="177,127 169.2,131.5 177,136.1 184.8,131.5 " id="polygon81" style="fill:#a5d16a" /><polygon points="177,127 169.2,122.5 161.4,127 169.2,131.5 " id="polygon82" style="fill:#8bc758" /><polygon points="184.8,122.5 177,127 184.8,131.5 192.6,127 " id="polygon83" style="fill:#8bc758" /><polygon points="153.5,104.3 161.4,99.8 153.5,95.3 145.7,99.8 " id="polygon84" style="fill:#93ca5b" /><polygon points="177,99.8 184.8,104.3 192.6,99.8 184.8,95.3 " id="polygon85" style="fill:#94cb5e" /><polygon points="161.4,108.9 169.2,104.3 161.4,99.8 153.5,104.3 " id="polygon86" style="fill:#b7d874" /><polygon points="169.2,104.3 177,108.9 184.8,104.3 177,99.8 " id="polygon87" style="fill:#bddb7e" /><polygon points="177,108.9 169.2,104.3 161.4,108.9 169.2,113.4 " id="polygon88" style="fill:#a4d16a" /><polygon points="177,108.9 184.8,113.4 192.6,108.9 184.8,104.3 " id="polygon89" style="fill:#93ca5d" /><polygon points="161.4,108.9 153.5,104.3 145.7,108.9 153.5,113.4 " id="polygon90" style="fill:#8bc758" /><polygon points="177,108.9 169.2,113.4 177,117.9 184.8,113.4 " id="polygon91" style="fill:#8bc758" /><polygon points="169.2,104.3 177,99.8 169.2,95.3 161.4,99.8 " id="polygon92" style="fill:#b7d874" /><polygon points="192.6,108.9 200.4,113.4 208.3,108.9 200.4,104.3 " id="polygon93" style="fill:#b7d876" /><polygon points="192.6,108.9 184.8,113.4 192.6,117.9 200.4,113.4 " id="polygon94" style="fill:#b7d876" /><polygon points="184.8,104.3 192.6,108.9 200.4,104.3 192.6,99.8 " id="polygon95" style="fill:#96cb5e" /><polygon points="184.8,113.4 177,117.9 184.8,122.5 192.6,117.9 " id="polygon96" style="fill:#a5d16a" /><polygon points="169.2,113.4 161.4,108.9 153.5,113.4 161.4,117.9 " id="polygon97" style="fill:#96cb5e" /><polygon points="177,117.9 169.2,113.4 161.4,117.9 169.2,122.5 " id="polygon98" style="fill:#8bc758" /><polygon points="177,117.9 169.2,122.5 177,127 184.8,122.5 " id="polygon99" style="fill:#96cb5e" /><polygon points="169.2,86.2 177,81.7 169.2,77.1 161.4,81.7 " id="polygon100" style="fill:#90c95a" /><polygon points="200.4,122.5 192.6,127 200.4,131.5 208.3,127 " id="polygon101" style="fill:#a0cf66" /><polygon points="208.3,117.9 200.4,122.5 208.3,127 216.1,122.5 " id="polygon102" style="fill:#b4d771" /><polygon points="216.1,113.4 208.3,117.9 216.1,122.5 223.9,117.9 " id="polygon103" style="fill:#8bc758" /><polygon points="223.9,108.9 216.1,113.4 223.9,117.9 231.7,113.4 " id="polygon104" style="fill:#94cb5e" /><polygon points="177,136.1 169.2,140.6 177,145.1 184.8,140.6 " id="polygon105" style="fill:#b4d773" /><polygon points="184.8,131.5 177,136.1 184.8,140.6 192.6,136.1 " id="polygon106" style="fill:#8bc758" /><polygon points="192.6,127 184.8,131.5 192.6,136.1 200.4,131.5 " id="polygon107" style="fill:#a0cf66" /><polygon points="184.8,86.2 192.6,90.7 200.4,86.2 192.6,81.7 " id="polygon108" style="fill:#9fcf67" /><polygon points="177,136.1 169.2,131.5 161.4,136.1 169.2,140.6 " id="polygon109" style="fill:#b4d773" /><polygon points="192.6,90.7 200.4,95.3 208.3,90.7 200.4,86.2 " id="polygon110" style="fill:#a5d167" /><polygon points="223.9,108.9 231.7,113.4 239.5,108.9 231.7,104.3 " id="polygon111" style="fill:#8bc758" /><polygon points="177,81.7 184.8,86.2 192.6,81.7 184.8,77.1 " id="polygon112" style="fill:#97cc61" /><polygon points="200.4,95.3 208.3,99.8 216.1,95.3 208.3,90.7 " id="polygon113" style="fill:#94cb5e" /><polygon points="216.1,104.3 223.9,108.9 231.7,104.3 223.9,99.8 " id="polygon114" style="fill:#94cb5e" /><polygon points="208.3,99.8 216.1,104.3 223.9,99.8 216.1,95.3 " id="polygon115" style="fill:#8bc758" /><polygon points="161.4,90.7 169.2,86.2 161.4,81.7 153.5,86.2 " id="polygon116" style="fill:#b4d773" /><polygon points="192.6,99.8 200.4,104.3 208.3,99.8 200.4,95.3 " id="polygon117" style="fill:#8bc758" /><polygon points="169.2,77.1 177,81.7 184.8,77.1 177,72.6 " id="polygon118" style="fill:#8bc758" /><polygon points="145.7,99.8 153.5,95.3 145.7,90.7 137.9,95.3 " id="polygon119" style="fill:#8bc756" /><polygon points="153.5,95.3 161.4,90.7 153.5,86.2 145.7,90.7 " id="polygon120" style="fill:#9fce62" /><polygon points="184.8,95.3 192.6,99.8 200.4,95.3 192.6,90.7 " id="polygon121" style="fill:#c6de83" /><polygon points="169.2,86.2 177,90.7 184.8,86.2 177,81.7 " id="polygon122" style="fill:#b4d773" /><polygon points="177,90.7 184.8,95.3 192.6,90.7 184.8,86.2 " id="polygon123" style="fill:#86c653" /><polygon points="145.7,117.9 137.9,113.4 130.1,117.9 137.9,122.5 " id="polygon124" style="fill:#81c44f" /><polygon points="169.2,131.5 161.4,127 153.5,131.5 161.4,136.1 " id="polygon125" style="fill:#96cb5e" /><polygon points="153.5,122.5 145.7,117.9 137.9,122.5 145.7,127 " id="polygon126" style="fill:#c2dc7e" /><polygon points="137.9,104.3 145.7,99.8 137.9,95.3 130.1,99.8 " id="polygon127" style="fill:#a5d16a" /><polygon points="161.4,127 153.5,122.5 145.7,127 153.5,131.5 " id="polygon128" style="fill:#b4d773" /><polygon points="130.1,108.9 137.9,104.3 130.1,99.8 122.3,104.3 " id="polygon129" style="fill:#8bc758" /><polygon points="137.9,113.4 130.1,108.9 122.3,113.4 130.1,117.9 " id="polygon130" style="fill:#8ec858" /><polygon points="130.1,108.9 122.3,104.3 114.5,108.9 122.3,113.4 " id="polygon131" style="fill:#9dce62" /><polygon points="98.8,117.9 91,113.4 83.2,117.9 91,122.5 " id="polygon132" style="fill:#8bc758" /><polygon points="98.8,127 91,122.5 83.2,127 91,131.5 " id="polygon133" style="fill:#9bcd64" /><polygon points="106.6,131.5 98.8,127 91,131.5 98.8,136.1 " id="polygon134" style="fill:#9bcd64" /><polygon points="184.8,59 192.6,63.5 200.4,59 192.6,54.5 " id="polygon135" style="fill:#b4d773" /><polygon points="83.2,117.9 75.4,113.4 67.6,117.9 75.4,122.5 " id="polygon136" style="fill:#93ca5b" /><polygon points="67.6,108.9 59.7,104.3 51.9,108.9 59.7,113.4 " id="polygon137" style="fill:#9bcd64" /><polygon points="114.5,136.1 106.6,131.5 98.8,136.1 106.6,140.6 " id="polygon138" style="fill:#a4d069" /><polygon points="75.4,113.4 67.6,108.9 59.7,113.4 67.6,117.9 " id="polygon139" style="fill:#81c44f" /><polygon points="169.2,167.8 161.4,163.3 153.5,167.8 161.4,172.3 " id="polygon140" style="fill:#a5d16a" /><polygon points="153.5,158.7 145.7,154.2 137.9,158.7 145.7,163.3 " id="polygon141" style="fill:#95cb60" /><polygon points="122.3,140.6 114.5,136.1 106.6,140.6 114.5,145.1 " id="polygon142" style="fill:#add470" /><polygon points="67.6,108.9 75.4,104.3 67.6,99.8 59.7,104.3 " id="polygon143" style="fill:#93ca5b" /><polygon points="161.4,163.3 153.5,158.7 145.7,163.3 153.5,167.8 " id="polygon144" style="fill:#95cb60" /><polygon points="130.1,145.1 122.3,140.6 114.5,145.1 122.3,149.7 " id="polygon145" style="fill:#a4d069" /><polygon points="137.9,149.7 130.1,145.1 122.3,149.7 130.1,154.2 " id="polygon146" style="fill:#8ec858" /><polygon points="145.7,154.2 137.9,149.7 130.1,154.2 137.9,158.7 " id="polygon147" style="fill:#95cb60" /><polygon points="130.1,72.6 137.9,68.1 130.1,63.5 122.3,68.1 " id="polygon148" style="fill:#8bc758" /><polygon points="137.9,68.1 145.7,63.5 137.9,59 130.1,63.5 " id="polygon149" style="fill:#9fce62" /><polygon points="145.7,63.5 153.5,59 145.7,54.5 137.9,59 " id="polygon150" style="fill:#9fce62" /><polygon points="161.4,54.5 169.2,49.9 161.4,45.4 153.5,49.9 " id="polygon151" style="fill:#b7d876" /><polygon points="153.5,59 161.4,54.5 153.5,49.9 145.7,54.5 " id="polygon152" style="fill:#9fce62" /><polygon points="177,54.5 184.8,59 192.6,54.5 184.8,49.9 " id="polygon153" style="fill:#acd46f" /><polygon points="75.4,104.3 83.2,99.8 75.4,95.3 67.6,99.8 " id="polygon154" style="fill:#b4d773" /><polygon points="169.2,49.9 177,45.4 169.2,40.9 161.4,45.4 " id="polygon155" style="fill:#acd36e" /><polygon points="169.2,49.9 177,54.5 184.8,49.9 177,45.4 " id="polygon156" style="fill:#9acd62" /><polygon points="177,172.3 169.2,167.8 161.4,172.3 169.2,176.9 " id="polygon157" style="fill:#a4d16a" /><polygon points="91,95.3 98.8,90.7 91,86.2 83.2,90.7 " id="polygon158" style="fill:#9bcd64" /><polygon points="83.2,99.8 91,95.3 83.2,90.7 75.4,95.3 " id="polygon159" style="fill:#89c755" /><polygon points="98.8,90.7 106.6,86.2 98.8,81.7 91,86.2 " id="polygon160" style="fill:#a1d06a" /><polygon points="106.6,86.2 114.5,81.7 106.6,77.1 98.8,81.7 " id="polygon161" style="fill:#9bcd64" /><polygon points="122.3,77.1 130.1,72.6 122.3,68.1 114.5,72.6 " id="polygon162" style="fill:#8ec858" /><polygon points="114.5,81.7 122.3,77.1 114.5,72.6 106.6,77.1 " id="polygon163" style="fill:#b4d773" /><polygon points="91,122.5 83.2,117.9 75.4,122.5 83.2,127 " id="polygon164" style="fill:#9bcd64" /><polygon points="239.5,81.7 247.3,86.2 255.2,81.7 247.3,77.1 " id="polygon165" style="fill:#a4d069" /><polygon points="223.9,72.6 231.7,77.1 239.5,72.6 231.7,68.1 " id="polygon166" style="fill:#8ec85c" /><polygon points="247.3,86.2 255.2,90.7 263,86.2 255.2,81.7 " id="polygon167" style="fill:#a4d069" /><polygon points="231.7,77.1 239.5,81.7 247.3,77.1 239.5,72.6 " id="polygon168" style="fill:#c6de83" /><polygon points="255.2,90.7 263,95.3 270.8,90.7 263,86.2 " id="polygon169" style="fill:#b7d873" /><polygon points="270.8,99.8 278.6,104.3 286.4,99.8 278.6,95.3 " id="polygon170" style="fill:#97cc61" /><polygon points="263,95.3 270.8,99.8 278.6,95.3 270.8,90.7 " id="polygon171" style="fill:#89c757" /><polygon points="192.6,54.5 200.4,59 208.3,54.5 200.4,49.9 " id="polygon172" style="fill:#90c95a" /><polygon points="184.8,49.9 192.6,54.5 200.4,49.9 192.6,45.4 " id="polygon173" style="fill:#add470" /><polygon points="177,45.4 184.8,49.9 192.6,45.4 184.8,40.9 " id="polygon174" style="fill:#9acd62" /><polygon points="177,36.3 169.2,40.9 177,45.4 184.8,40.9 " id="polygon175" style="fill:#acd36e" /><polygon points="200.4,59 208.3,63.5 216.1,59 208.3,54.5 " id="polygon176" style="fill:#96cb61" /><polygon points="208.3,63.5 216.1,68.1 223.9,63.5 216.1,59 " id="polygon177" style="fill:#96cb61" /><polygon points="278.6,104.3 286.4,108.9 294.2,104.3 286.4,99.8 " id="polygon178" style="fill:#a5d16a" /><polygon points="216.1,68.1 223.9,72.6 231.7,68.1 223.9,63.5 " id="polygon179" style="fill:#c6de83" /><polygon points="239.5,136.1 231.7,140.6 239.5,145.1 247.3,140.6 " id="polygon180" style="fill:#8bc758" /><polygon points="286.4,108.9 294.2,113.4 302.1,108.9 294.2,104.3 " id="polygon181" style="fill:#94cb60" /><polygon points="216.1,149.7 208.3,154.2 216.1,158.7 223.9,154.2 " id="polygon182" style="fill:#a5d16a" /><polygon points="223.9,145.1 216.1,149.7 223.9,154.2 231.7,149.7 " id="polygon183" style="fill:#8bc758" /><polygon points="192.6,163.3 184.8,167.8 192.6,172.3 200.4,167.8 " id="polygon184" style="fill:#a5d16a" /><polygon points="200.4,158.7 192.6,163.3 200.4,167.8 208.3,163.3 " id="polygon185" style="fill:#8bc758" /><polygon points="184.8,167.8 177,172.3 184.8,176.9 192.6,172.3 " id="polygon186" style="fill:#a5d16a" /><polygon points="231.7,140.6 223.9,145.1 231.7,149.7 239.5,145.1 " id="polygon187" style="fill:#9dce66" /><polygon points="208.3,154.2 200.4,158.7 208.3,163.3 216.1,158.7 " id="polygon188" style="fill:#aed471" /><polygon points="278.6,113.4 270.8,117.9 278.6,122.5 286.4,117.9 " id="polygon189" style="fill:#c0dc83" /><polygon points="286.4,108.9 278.6,113.4 286.4,117.9 294.2,113.4 " id="polygon190" style="fill:#b4d771" /><polygon points="177,172.3 169.2,176.9 177,181.4 184.8,176.9 " id="polygon191" style="fill:#a4d16a" /><polygon points="270.8,117.9 263,122.5 270.8,127 278.6,122.5 " id="polygon192" style="fill:#c0dc83" /><polygon points="247.3,131.5 239.5,136.1 247.3,140.6 255.2,136.1 " id="polygon193" style="fill:#9fcf67" /><polygon points="263,122.5 255.2,127 263,131.5 270.8,127 " id="polygon194" style="fill:#93ca5b" /><polygon points="255.2,127 247.3,131.5 255.2,136.1 263,131.5 " id="polygon195" style="fill:#9fcf67" /><polygon points="130.1,136.1 122.3,131.5 114.5,136.1 122.3,140.6 " id="polygon196" style="fill:#8bc758" /><polygon points="130.1,81.7 137.9,77.1 130.1,72.6 122.3,77.1 " id="polygon197" style="fill:#8ec858" /><polygon points="169.2,59 177,54.5 169.2,49.9 161.4,54.5 " id="polygon198" style="fill:#b4d773" /><polygon points="122.3,86.2 130.1,81.7 122.3,77.1 114.5,81.7 " id="polygon199" style="fill:#8ec858" /><polygon points="161.4,63.5 169.2,59 161.4,54.5 153.5,59 " id="polygon200" style="fill:#8bc758" /><polygon points="114.5,90.7 122.3,86.2 114.5,81.7 106.6,86.2 " id="polygon201" style="fill:#a1d06a" /><polygon points="145.7,72.6 153.5,68.1 145.7,63.5 137.9,68.1 " id="polygon202" style="fill:#94cb60" /><polygon points="153.5,68.1 161.4,63.5 153.5,59 145.7,63.5 " id="polygon203" style="fill:#8bc758" /><polygon points="137.9,77.1 145.7,72.6 137.9,68.1 130.1,72.6 " id="polygon204" style="fill:#9fce62" /><polygon points="91,113.4 83.2,108.9 75.4,113.4 83.2,117.9 " id="polygon205" style="fill:#9bcd64" /><polygon points="106.6,122.5 98.8,117.9 91,122.5 98.8,127 " id="polygon206" style="fill:#a4d069" /><polygon points="83.2,108.9 75.4,104.3 67.6,108.9 75.4,113.4 " id="polygon207" style="fill:#93ca5b" /><polygon points="106.6,95.3 114.5,90.7 106.6,86.2 98.8,90.7 " id="polygon208" style="fill:#9bcd64" /><polygon points="98.8,99.8 106.6,95.3 98.8,90.7 91,95.3 " id="polygon209" style="fill:#94cb5e" /><polygon points="91,104.3 98.8,99.8 91,95.3 83.2,99.8 " id="polygon210" style="fill:#9dce66" /><polygon points="83.2,108.9 91,104.3 83.2,99.8 75.4,104.3 " id="polygon211" style="fill:#8bc758" /><polygon points="247.3,113.4 239.5,117.9 247.3,122.5 255.2,117.9 " id="polygon212" style="fill:#93ca5b" /><polygon points="247.3,104.3 255.2,108.9 263,104.3 255.2,99.8 " id="polygon213" style="fill:#89c757" /><polygon points="231.7,95.3 239.5,99.8 247.3,95.3 239.5,90.7 " id="polygon214" style="fill:#89c755" /><polygon points="239.5,99.8 247.3,104.3 255.2,99.8 247.3,95.3 " id="polygon215" style="fill:#a8d26a" /><polygon points="169.2,59 177,63.5 184.8,59 177,54.5 " id="polygon216" style="fill:#9acd62" /><polygon points="239.5,117.9 231.7,122.5 239.5,127 247.3,122.5 " id="polygon217" style="fill:#9fcf67" /><polygon points="114.5,127 106.6,122.5 98.8,127 106.6,131.5 " id="polygon218" style="fill:#add470" /><polygon points="255.2,108.9 247.3,113.4 255.2,117.9 263,113.4 " id="polygon219" style="fill:#93ca5b" /><polygon points="255.2,108.9 263,113.4 270.8,108.9 263,104.3 " id="polygon220" style="fill:#83c552" /><polygon points="184.8,68.1 192.6,72.6 200.4,68.1 192.6,63.5 " id="polygon221" style="fill:#b4d773" /><polygon points="177,63.5 184.8,68.1 192.6,63.5 184.8,59 " id="polygon222" style="fill:#b4d773" /><polygon points="192.6,72.6 200.4,77.1 208.3,72.6 200.4,68.1 " id="polygon223" style="fill:#b4d773" /><polygon points="216.1,86.2 223.9,90.7 231.7,86.2 223.9,81.7 " id="polygon224" style="fill:#c6de83" /><polygon points="223.9,90.7 231.7,95.3 239.5,90.7 231.7,86.2 " id="polygon225" style="fill:#89c755" /><polygon points="208.3,81.7 216.1,86.2 223.9,81.7 216.1,77.1 " id="polygon226" style="fill:#aed471" /><polygon points="200.4,77.1 208.3,81.7 216.1,77.1 208.3,72.6 " id="polygon227" style="fill:#c6de83" /><polygon points="223.9,81.7 231.7,86.2 239.5,81.7 231.7,77.1 " id="polygon228" style="fill:#a4d069" /><polygon points="270.8,108.9 278.6,113.4 286.4,108.9 278.6,104.3 " id="polygon229" style="fill:#b4d771" /><polygon points="270.8,108.9 263,113.4 270.8,117.9 278.6,113.4 " id="polygon230" style="fill:#b4d771" /><polygon points="263,104.3 270.8,108.9 278.6,104.3 270.8,99.8 " id="polygon231" style="fill:#97cc61" /><polygon points="239.5,127 231.7,131.5 239.5,136.1 247.3,131.5 " id="polygon232" style="fill:#8bc758" /><polygon points="263,113.4 255.2,117.9 263,122.5 270.8,117.9 " id="polygon233" style="fill:#a7d26c" /><polygon points="247.3,122.5 239.5,127 247.3,131.5 255.2,127 " id="polygon234" style="fill:#9fcf67" /><polygon points="255.2,117.9 247.3,122.5 255.2,127 263,122.5 " id="polygon235" style="fill:#b4d771" /><polygon points="255.2,99.8 263,104.3 270.8,99.8 263,95.3 " id="polygon236" style="fill:#83c552" /><polygon points="208.3,72.6 216.1,77.1 223.9,72.6 216.1,68.1 " id="polygon237" style="fill:#aed471" /><polygon points="122.3,131.5 114.5,127 106.6,131.5 114.5,136.1 " id="polygon238" style="fill:#b7d876" /><polygon points="216.1,77.1 223.9,81.7 231.7,77.1 223.9,72.6 " id="polygon239" style="fill:#8ec85c" /><polygon points="200.4,68.1 208.3,72.6 216.1,68.1 208.3,63.5 " id="polygon240" style="fill:#a4d068" /><polygon points="192.6,63.5 200.4,68.1 208.3,63.5 200.4,59 " id="polygon241" style="fill:#acd36e" /><polygon points="239.5,90.7 247.3,95.3 255.2,90.7 247.3,86.2 " id="polygon242" style="fill:#b7d873" /><polygon points="231.7,86.2 239.5,90.7 247.3,86.2 239.5,81.7 " id="polygon243" style="fill:#8ec85a" /><polygon points="247.3,95.3 255.2,99.8 263,95.3 255.2,90.7 " id="polygon244" style="fill:#bddb7e" /><polygon points="161.4,154.2 153.5,149.7 145.7,154.2 153.5,158.7 " id="polygon245" style="fill:#a5d16a" /><polygon points="177,163.3 169.2,158.7 161.4,163.3 169.2,167.8 " id="polygon246" style="fill:#a5d16a" /><polygon points="169.2,158.7 161.4,154.2 153.5,158.7 161.4,163.3 " id="polygon247" style="fill:#a5d16a" /><polygon points="153.5,149.7 145.7,145.1 137.9,149.7 145.7,154.2 " id="polygon248" style="fill:#8bc758" /><polygon points="231.7,122.5 223.9,127 231.7,131.5 239.5,127 " id="polygon249" style="fill:#bfdb7b" /><polygon points="145.7,145.1 137.9,140.6 130.1,145.1 137.9,149.7 " id="polygon250" style="fill:#95cb60" /><polygon points="137.9,140.6 130.1,136.1 122.3,140.6 130.1,145.1 " id="polygon251" style="fill:#81c44f" /><polygon points="223.9,136.1 216.1,140.6 223.9,145.1 231.7,140.6 " id="polygon252" style="fill:#96cb5e" /><polygon points="216.1,140.6 208.3,145.1 216.1,149.7 223.9,145.1 " id="polygon253" style="fill:#a5d16a" /><polygon points="231.7,131.5 223.9,136.1 231.7,140.6 239.5,136.1 " id="polygon254" style="fill:#a5d16a" /><polygon points="177,163.3 169.2,167.8 177,172.3 184.8,167.8 " id="polygon255" style="fill:#8bc758" /><polygon points="208.3,145.1 200.4,149.7 208.3,154.2 216.1,149.7 " id="polygon256" style="fill:#a5d16a" /><polygon points="184.8,158.7 177,163.3 184.8,167.8 192.6,163.3 " id="polygon257" style="fill:#bad979" /><polygon points="200.4,149.7 192.6,154.2 200.4,158.7 208.3,154.2 " id="polygon258" style="fill:#93ca5d" /><polygon points="192.6,154.2 184.8,158.7 192.6,163.3 200.4,158.7 " id="polygon259" style="fill:#93ca5d" /></g><g id="g686"><polygon points="91,158.7 83.2,154.1 83.2,163.2 91,167.7 " id="polygon521" style="fill:#6eb146" /><polygon points="137.9,185.9 130.1,181.3 130.1,190.4 137.9,194.9 " id="polygon523" style="fill:#6cad44" /><polygon points="122.3,176.8 114.5,172.3 114.5,181.3 122.3,185.9 " id="polygon524" style="fill:#6cad44" /><polygon points="145.7,181.4 137.9,176.8 137.9,185.9 145.7,190.4 " id="polygon533" style="fill:#99cb6a" /><polygon points="130.1,172.3 122.3,167.8 122.3,176.8 130.1,181.3 " id="polygon534" style="fill:#7ec156" /><polygon points="137.9,176.8 130.1,172.3 130.1,181.3 137.9,185.9 " id="polygon536" style="fill:#90c161" /><polygon points="91,149.6 83.2,145.1 83.2,154.1 91,158.7 " id="polygon538" style="fill:#65a744" /><polygon points="122.3,167.8 114.5,163.2 114.5,172.3 122.3,176.8 " id="polygon539" style="fill:#73b54a" /><polygon points="67.6,136 67.6,145.1 75.4,149.6 75.4,140.6 " id="polygon540" style="fill:#99cb6a" /><polygon points="83.2,145.1 75.4,140.6 75.4,149.6 83.2,154.1 " id="polygon541" style="fill:#65a744" /><polygon points="106.7,158.7 98.8,154.2 98.8,163.2 106.7,167.7 " id="polygon542" style="fill:#6eb146" /><polygon points="51.9,127 51.9,136 59.8,140.5 59.8,131.5 " id="polygon588" style="fill:#90c161" /><polygon points="67.6,117.9 59.8,113.4 59.8,122.4 67.6,127 " id="polygon589" style="fill:#73b54a" /><polygon points="51.9,117.9 51.9,127 59.8,131.5 59.8,122.4 " id="polygon590" style="fill:#73b54a" /><polygon points="51.9,108.9 51.9,117.9 59.8,122.4 59.8,113.4 " id="polygon591" style="fill:#73b54a" /><polygon points="75.4,122.5 67.6,117.9 67.6,127 75.4,131.5 " id="polygon594" style="fill:#73b54a" /><polygon points="137.9,158.7 130.1,154.2 130.1,163.2 137.9,167.8 " id="polygon597" style="fill:#68aa44" /><polygon points="169.2,176.9 161.4,172.3 161.4,181.4 169.2,185.9 " id="polygon598" style="fill:#559642" /><polygon points="145.7,163.3 137.9,158.7 137.9,167.8 145.7,172.3 " id="polygon599" style="fill:#65a744" /><polygon points="153.6,167.8 145.7,163.3 145.7,172.3 153.6,176.8 " id="polygon600" style="fill:#68aa44" /><polygon points="161.4,172.3 153.6,167.8 153.6,176.8 161.4,181.4 " id="polygon601" style="fill:#60a244" /><polygon points="169.2,204 169.2,195 161.4,190.4 161.4,199.5 " id="polygon603" style="fill:#60a244" /><polygon points="83.2,127 75.4,122.5 75.4,131.5 83.2,136 " id="polygon604" style="fill:#65a744" /><polygon points="169.2,195 169.2,185.9 161.4,181.4 161.4,190.4 " id="polygon605" style="fill:#65a744" /><polygon points="98.8,136.1 91,131.5 91,140.6 98.8,145.1 " id="polygon606" style="fill:#6eb146" /><polygon points="91,131.5 83.2,127 83.2,136 91,140.6 " id="polygon607" style="fill:#65a744" /><polygon points="106.7,140.6 98.8,136.1 98.8,145.1 106.7,149.6 " id="polygon608" style="fill:#60a244" /><polygon points="130.1,154.2 122.3,149.7 122.3,158.7 130.1,163.2 " id="polygon609" style="fill:#73b54a" /><polygon points="114.5,145.1 106.7,140.6 106.7,149.6 114.5,154.2 " id="polygon610" style="fill:#68aa44" /><polygon points="122.3,149.7 114.5,145.1 114.5,154.2 122.3,158.7 " id="polygon611" style="fill:#7ec156" /><polygon points="177,199.5 177,190.4 169.2,185.9 169.2,195 " id="polygon617" style="fill:#6cad44" /><polygon points="169.2,185.9 177,190.4 177,181.4 169.2,176.9 " id="polygon619" style="fill:#6cad44" /><polygon points="122.3,158.7 114.5,154.2 114.5,163.2 122.3,167.8 " id="polygon636" style="fill:#60a244" /><polygon points="130.1,163.2 122.3,158.7 122.3,167.8 130.1,172.3 " id="polygon637" style="fill:#90c161" /><polygon points="114.5,154.2 106.7,149.6 106.7,158.7 114.5,163.2 " id="polygon638" style="fill:#60a244" /><polygon points="153.6,176.8 145.7,172.3 145.7,181.4 153.6,185.9 " id="polygon639" style="fill:#60a244" /><polygon points="137.9,167.8 130.1,163.2 130.1,172.3 137.9,176.8 " id="polygon640" style="fill:#90c161" /><polygon points="106.7,149.6 98.8,145.1 98.8,154.2 106.7,158.7 " id="polygon641" style="fill:#68aa44" /><polygon points="145.7,172.3 137.9,167.8 137.9,176.8 145.7,181.4 " id="polygon642" style="fill:#73b54a" /><polygon points="161.4,181.4 153.6,176.8 153.6,185.9 161.4,190.4 " id="polygon644" style="fill:#6cad44" /><polygon points="59.8,122.4 59.8,131.5 67.6,136 67.6,127 " id="polygon645" style="fill:#6cad44" /><polygon points="75.4,131.5 67.6,127 67.6,136 75.4,140.6 " id="polygon647" style="fill:#85b554" /><polygon points="91,140.6 83.2,136 83.2,145.1 91,149.6 " id="polygon648" style="fill:#85b554" /><polygon points="83.2,136 75.4,131.5 75.4,140.6 83.2,145.1 " id="polygon649" style="fill:#85b554" /><polygon points="161.4,199.5 161.4,190.4 153.6,185.9 153.6,194.9 " id="polygon659" style="fill:#60a244" /><polygon points="98.8,244.7 98.8,253.7 106.7,258.2 106.7,249.2 " id="polygon516-5" style="fill:#ba865c" /><polygon points="145.7,271.8 153.6,276.4 153.6,267.3 145.7,262.8 " id="polygon517-7" style="fill:#593d2a" /><polygon points="145.7,199.5 145.7,190.4 137.9,185.9 137.9,194.9 " id="polygon518-9" style="fill:#593d2a" /><polygon points="114.5,181.3 114.5,172.3 106.7,167.7 106.7,176.8 " id="polygon519-8" style="fill:#593d2a" /><polygon points="106.7,176.8 106.7,167.7 98.8,163.2 98.8,172.3 " id="polygon520-4" style="fill:#593d2a" /><polygon points="98.8,172.3 98.8,163.2 91,158.7 91,167.7 " id="polygon522-5" style="fill:#593d2a" /><polygon points="130.1,190.4 130.1,181.3 122.3,176.8 122.3,185.9 " id="polygon525-8" style="fill:#593d2a" /><polygon points="83.2,199.4 75.4,194.9 75.4,203.9 83.2,208.4 " id="polygon526-8" style="fill:#966d4b" /><polygon points="83.2,163.2 75.4,158.7 75.4,167.7 83.2,172.2 " id="polygon527-9" style="fill:#ba865c" /><polygon points="75.4,167.7 75.4,158.7 67.6,154.1 67.6,163.2 67.6,172.2 75.4,176.8 83.2,181.3 83.2,172.2 " id="polygon529-7" style="fill:#966d4b" /><polygon points="114.5,271.8 114.5,262.8 106.7,258.2 98.8,253.7 98.8,262.8 106.7,267.3 " id="polygon530-0" style="fill:#966d4b" /><polygon points="75.4,231.1 67.6,226.5 67.6,235.6 75.4,240.1 " id="polygon531-4" style="fill:#966d4b" /><polygon points="114.5,172.3 114.5,163.2 106.7,158.7 106.7,167.7 " id="polygon532-0" style="fill:#593d2a" /><polygon points="153.6,194.9 153.6,185.9 145.7,181.4 145.7,190.4 " id="polygon535-6" style="fill:#593d2a" /><polygon points="98.8,163.2 98.8,154.2 91,149.6 91,158.7 " id="polygon537-5" style="fill:#593d2a" /><polygon points="83.2,163.2 83.2,154.1 75.4,149.6 67.6,145.1 67.6,154.1 75.4,158.7 " id="polygon543-3" style="fill:#593d2a" /><polygon points="137.9,204 145.7,208.5 145.7,199.5 137.9,194.9 " id="polygon544-8" style="fill:#6c6d6d" /><polygon points="98.8,208.5 91,203.9 91,213 98.8,217.5 " id="polygon545-5" style="fill:#966d4b" /><polygon points="98.8,199.4 91,194.9 91,203.9 98.8,208.5 " id="polygon546-1" style="fill:#966d4b" /><polygon points="98.8,181.3 91,176.8 91,185.8 98.8,190.4 " id="polygon547-2" style="fill:#966d4b" /><polygon points="122.3,204 122.3,194.9 114.5,190.4 114.5,199.4 " id="polygon548-4" style="fill:#593d2a" /><polygon points="106.7,194.9 106.7,185.8 98.8,181.3 98.8,190.4 " id="polygon549-6" style="fill:#593d2a" /><polygon points="114.5,235.6 114.5,244.7 122.3,249.2 122.3,240.1 " id="polygon550-7" style="fill:#593d2a" /><polygon points="91,222 91,231.1 98.8,235.6 98.8,226.6 " id="polygon551-5" style="fill:#7a563b" /><polygon points="98.8,226.6 98.8,235.6 106.7,240.1 106.7,231.1 " id="polygon552-5" style="fill:#ba865c" /><path id="polygon553-0" style="fill:#593d2a" d="M 98.8,216.329 91,211.42018 V 222 L 98.8,226.6 Z"/><polygon points="137.9,258.3 137.9,249.2 130.1,244.7 122.3,240.1 122.3,249.2 130.1,253.7 " id="polygon554-5" style="fill:#ba865c" /><polygon points="114.5,217.5 122.3,222.1 122.3,213 114.5,208.5 " id="polygon555-2" style="fill:#966d4b" /><polygon points="122.3,213 122.3,204 114.5,199.4 106.7,194.9 106.7,203.9 114.5,208.5 " id="polygon556-0" style="fill:#ba865c" /><polygon points="106.7,213 106.7,222 114.5,226.6 114.5,217.5 " id="polygon557-7" style="fill:#593d2a" /><polygon points="91,194.9 98.8,199.4 98.8,208.5 98.8,217.5 106.7,222 106.7,213 114.5,217.5 114.5,208.5 106.7,203.9 106.7,194.9 98.8,190.4 91,185.8 " id="polygon558-7" style="fill:#7a563b" /><path id="polygon559-9" style="fill:#593d2a" d="M 98.8,216.329 V 226.6 L 106.7,231.1 V 221.18199 Z"/><polygon points="122.3,222.1 130.1,226.6 130.1,217.5 122.3,213 " id="polygon560-7" style="fill:#593d2a" /><polygon points="114.5,244.7 114.5,253.7 122.3,258.2 122.3,249.2 " id="polygon561-5" style="fill:#6c6d6d" /><polygon points="114.5,244.7 114.5,235.6 106.7,231.1 106.7,240.1 106.7,249.2 114.5,253.7 " id="polygon562-3" style="fill:#966d4b" /><polygon points="137.9,267.3 137.9,258.3 130.1,253.7 122.3,249.2 122.3,258.2 130.1,262.8 " id="polygon563-9" style="fill:#966d4b" />&#10;		&#10;		&#10;		&#10;		<polygon points="137.9,213 145.7,217.5 145.7,208.5 137.9,204 " id="polygon567-1" style="fill:#593d2a" /><polygon points="91,231.1 91,222 83.2,217.5 75.4,213 75.4,222 83.2,226.5 " id="polygon568-5" style="fill:#ba865c" /><polygon points="137.9,258.3 145.7,262.8 145.7,253.7 137.9,249.2 " id="polygon569-9" style="fill:#593d2a" /><polygon points="130.1,199.4 130.1,190.4 122.3,185.9 122.3,194.9 " id="polygon570-8" style="fill:#593d2a" /><path id="polygon564-9" style="fill:#7a563b" d="M 98.8,234.9 V 244.7 L 106.7,249.2 V 239.4 Z"/><path id="polygon565-4" style="fill:#966d4b" d="M 98.8,253.7 V 244.7 L 91,240.1 V 230.4 L 83.2,225.8 75.4,221.3 V 231.1 L 83.2,235.6 V 244.6 L 91,249.2 Z"/><path id="polygon566-9" style="fill:#ba865c" d="M 91,230.4 V 240.1 L 98.8,244.7 V 234.9 Z"/><polygon points="122.3,194.9 122.3,185.9 114.5,181.3 114.5,190.4 " id="polygon571-3" style="fill:#593d2a" /><polygon points="137.9,204 137.9,194.9 130.1,190.4 130.1,199.4 " id="polygon572-0" style="fill:#593d2a" /><polygon points="145.7,226.6 145.7,217.5 137.9,213 130.1,208.5 130.1,217.5 137.9,222.1 " id="polygon573-9" style="fill:#ba865c" /><polygon points="137.9,240.2 137.9,231.1 145.7,235.6 145.7,226.6 137.9,222.1 130.1,217.5 130.1,226.6 122.3,222.1 122.3,231.1 130.1,235.6 " id="polygon574-0" style="fill:#966d4b" /><polygon points="130.1,199.4 122.3,194.9 122.3,204 122.3,213 130.1,217.5 130.1,208.5 137.9,213 137.9,204 " id="polygon575-7" style="fill:#7a563b" /><polygon points="91,194.9 83.2,190.3 83.2,199.4 91,203.9 " id="polygon576-6" style="fill:#966d4b" /><path id="polygon577-8" style="fill:#7a563b" d="M 83.2,199.4 V 206.71703 L 75.4,202.21703 V 213 L 83.2,217.5 91,222 V 211.42018 203.9 Z"/><polygon points="91,185.8 83.2,181.3 83.2,190.3 91,194.9 " id="polygon578-3" style="fill:#878888" /><polygon points="98.8,181.3 98.8,172.3 91,167.7 91,176.8 " id="polygon579-8" style="fill:#966d4b" /><polygon points="114.5,190.4 114.5,181.3 106.7,176.8 98.8,172.3 98.8,181.3 106.7,185.8 " id="polygon580-6" style="fill:#7a563b" /><polygon points="91,176.8 83.2,172.2 83.2,181.3 91,185.8 " id="polygon581-1" style="fill:#7a563b" /><polygon points="91,167.7 83.2,163.2 83.2,172.2 91,176.8 " id="polygon582-9" style="fill:#593d2a" /><polygon points="114.5,199.4 114.5,190.4 106.7,185.8 106.7,194.9 " id="polygon583-6" style="fill:#593d2a" /><polygon points="59.8,149.6 51.9,145.1 51.9,154.1 59.8,158.6 " id="polygon584-7" style="fill:#966d4b" /><polygon points="59.8,140.5 51.9,136 51.9,145.1 59.8,149.6 " id="polygon585-8" style="fill:#593d2a" /><polygon points="59.8,167.7 51.9,163.2 51.9,172.2 59.8,176.7 " id="polygon586-9" style="fill:#ba865c" /><polygon points="59.8,158.6 51.9,154.1 51.9,163.2 59.8,167.7 " id="polygon587-7" style="fill:#7a563b" /><polygon points="59.8,231 59.8,222 51.9,217.5 51.9,226.5 51.9,235.6 59.8,240.1 " id="polygon593-5" style="fill:#7a563b" /><polygon points="59.8,185.8 51.9,181.3 51.9,190.3 59.8,194.8 " id="polygon595-2" style="fill:#966d4b" /><path id="polygon596-4" style="fill:#7a563b" d="M 51.9,208.4 59.8,212.9 V 203.9 192.91381 L 51.9,188.41381 V 199.4 Z"/><polygon points="161.4,208.5 169.2,213 169.2,204 161.4,199.5 " id="polygon602-9" style="fill:#593d2a" />&#10;		&#10;		&#10;		&#10;		&#10;		&#10;		&#10;		&#10;		&#10;		&#10;		<polygon points="169.2,276.4 177,280.9 177,271.8 169.2,267.3 " id="polygon612-4" style="fill:#7a563b" /><polygon points="169.2,258.3 177,262.8 177,253.8 169.2,249.2 " id="polygon613-4" style="fill:#7a563b" /><path id="polygon592-5" style="fill:#966d4b" d="M 59.8,212.1 51.9,207.6 V 217.5 L 59.8,222 Z"/><polygon points="169.2,267.3 177,271.8 177,262.8 169.2,258.3 " id="polygon614-7" style="fill:#966d4b" /><polygon points="161.4,217.6 169.2,222.1 169.2,213 161.4,208.5 " id="polygon615-9" style="fill:#593d2a" /><polygon points="169.2,285.4 177,289.9 177,280.9 169.2,276.4 " id="polygon616-5" style="fill:#593d2a" /><polygon points="169.2,204 177,208.5 177,199.5 169.2,195 " id="polygon618-5" style="fill:#593d2a" /><polygon points="169.2,231.1 177,235.7 177,226.6 169.2,222.1 " id="polygon620-6" style="fill:#ba865c" /><polygon points="177,217.6 177,208.5 169.2,204 169.2,213 169.2,222.1 177,226.6 " id="polygon621-1" style="fill:#7a563b" /><polygon points="106.7,276.3 106.7,285.4 114.5,289.9 114.5,280.9 " id="polygon622-5" style="fill:#7a563b" /><polygon points="91,276.3 91,267.3 83.2,262.7 75.4,258.2 75.4,267.3 83.2,271.8 " id="polygon623-9" style="fill:#966d4b" /><polygon points="169.2,321.6 177,326.1 177,317.1 169.2,312.6 " id="polygon624-1" style="fill:#593d2a" /><polygon points="91,267.3 91,276.3 98.8,280.8 98.8,271.8 " id="polygon625-3" style="fill:#7a563b" /><polygon points="59.8,249.1 59.8,240.1 51.9,235.6 51.9,244.6 51.9,253.7 59.8,258.2 " id="polygon626-8" style="fill:#966d4b" /><polygon points="59.8,249.1 59.8,258.2 67.6,262.7 67.6,253.7 " id="polygon627-8" style="fill:#7a563b" /><polygon points="67.6,253.7 67.6,262.7 75.4,267.3 75.4,258.2 " id="polygon628-9" style="fill:#ba865c" /><polygon points="98.8,271.8 98.8,280.8 106.7,285.4 106.7,276.3 " id="polygon629-4" style="fill:#878888" /><polygon points="161.4,308 161.4,317.1 169.2,321.6 169.2,312.6 " id="polygon630-3" style="fill:#7a563b" /><polygon points="161.4,317.1 161.4,308 153.6,303.5 145.7,299 145.7,308 153.6,312.5 " id="polygon631-9" style="fill:#966d4b" /><polygon points="130.1,299 130.1,289.9 122.3,285.4 114.5,280.9 114.5,289.9 122.3,294.4 " id="polygon632-5" style="fill:#966d4b" /><polygon points="122.3,267.3 122.3,276.3 130.1,280.9 130.1,271.8 " id="polygon633-1" style="fill:#593d2a" /><polygon points="130.1,289.9 130.1,299 137.9,303.5 137.9,294.4 " id="polygon634-7" style="fill:#7a563b" /><polygon points="137.9,294.4 137.9,303.5 145.7,308 145.7,299 " id="polygon635-4" style="fill:#7a563b" />&#10;		&#10;		&#10;		&#10;		&#10;		&#10;		&#10;		&#10;		<polygon points="67.6,136 59.8,131.5 59.8,140.5 67.6,145.1 " id="polygon643-5" style="fill:#593d2a" /><polygon points="67.6,145.1 59.8,140.5 59.8,149.6 67.6,154.1 " id="polygon646-1" style="fill:#6c6d6d" />&#10;		&#10;		&#10;		&#10;		<polygon points="98.8,154.2 98.8,145.1 91,140.6 91,149.6 " id="polygon650-4" style="fill:#593d2a" /><polygon points="153.6,204 161.4,208.5 161.4,199.5 153.6,194.9 " id="polygon651-6" style="fill:#593d2a" /><polygon points="153.6,294.5 161.4,299 161.4,289.9 153.6,285.4 " id="polygon652-0" style="fill:#ba865c" /><polygon points="153.6,258.3 145.7,253.7 145.7,262.8 153.6,267.3 153.6,276.4 161.4,280.9 161.4,271.8 161.4,262.8 " id="polygon653-3" style="fill:#966d4b" /><polygon points="130.1,271.8 130.1,280.9 137.9,285.4 137.9,276.3 " id="polygon654-2" style="fill:#ba865c" /><polygon points="137.9,276.3 137.9,285.4 145.7,289.9 145.7,280.9 " id="polygon655-2" style="fill:#593d2a" /><polygon points="153.6,213 161.4,217.6 161.4,208.5 153.6,204 " id="polygon657-4" style="fill:#966d4b" /><polygon points="67.6,154.1 59.8,149.6 59.8,158.6 67.6,163.2 " id="polygon658-7" style="fill:#7a563b" /><polygon points="153.6,231.1 161.4,235.7 161.4,226.6 153.6,222.1 " id="polygon660-7" style="fill:#966d4b" /><polygon points="106.7,267.3 106.7,276.3 114.5,280.9 114.5,271.8 " id="polygon661-0" style="fill:#593d2a" /><polygon points="169.2,294.5 161.4,289.9 161.4,299 161.4,308 169.2,312.6 177,317.1 177,308 177,299 " id="polygon662-9" style="fill:#966d4b" /><polygon points="130.1,271.8 137.9,276.3 145.7,280.9 145.7,289.9 145.7,299 153.6,303.5 161.4,308 161.4,299 153.6,294.5 153.6,285.4 161.4,289.9 161.4,280.9 153.6,276.4 145.7,271.8 145.7,262.8 137.9,258.3 137.9,267.3 130.1,262.8 122.3,258.2 114.5,253.7 106.7,249.2 106.7,258.2 114.5,262.8 114.5,271.8 122.3,276.3 122.3,267.3 " id="polygon663-5" style="fill:#7a563b" /><polygon points="130.1,280.9 130.1,289.9 137.9,294.4 137.9,285.4 " id="polygon664-7" style="fill:#7a563b" /><polygon points="137.9,285.4 137.9,294.4 145.7,299 145.7,289.9 " id="polygon665-2" style="fill:#966d4b" /><polygon points="177,299 177,289.9 169.2,285.4 161.4,280.9 161.4,289.9 169.2,294.5 " id="polygon666-9" style="fill:#ba865c" /><polygon points="161.4,253.7 169.2,258.3 169.2,249.2 161.4,244.7 " id="polygon667-7" style="fill:#593d2a" /><polygon points="169.2,231.1 169.2,240.2 161.4,235.7 161.4,244.7 169.2,249.2 177,253.8 177,244.7 177,235.7 " id="polygon668-6" style="fill:#966d4b" /><polygon points="161.4,280.9 169.2,285.4 169.2,276.4 161.4,271.8 " id="polygon670-2" style="fill:#7a563b" /><polygon points="130.1,289.9 130.1,280.9 122.3,276.3 114.5,271.8 114.5,280.9 122.3,285.4 " id="polygon671-9" style="fill:#ba865c" /><polygon points="161.4,271.8 169.2,276.4 169.2,267.3 161.4,262.8 " id="polygon672-9" style="fill:#878888" /><polygon points="67.6,235.6 59.8,231 59.8,240.1 67.6,244.6 " id="polygon673-8" style="fill:#966d4b" /><polygon points="67.6,226.5 59.8,222 59.8,231 67.6,235.6 " id="polygon675-7" style="fill:#593d2a" /><path id="polygon677-2" style="fill:#7a563b" d="M 145.7,226.6 V 235.6 L 137.9,231.1 V 240.2 L 122.3,230.33012 V 222.1 L 114.5,217.5 V 225.92713 L 106.7,221.18199 V 231.1 L 114.5,235.6 122.3,240.1 137.9,249.2 145.7,253.7 V 244.7 L 153.6,249.2 161.4,253.7 V 244.7 235.7 L 153.6,231.1 V 222.1 L 161.4,226.6 V 235.7 L 169.2,240.2 V 231.1 222.1 L 161.4,217.6 153.6,213 V 204 194.9 L 145.7,190.4 V 199.5 208.5 217.5 Z"/><polygon points="75.4,176.8 67.6,172.2 59.8,167.7 59.8,176.7 51.9,172.2 51.9,181.3 59.8,185.8 59.8,194.8 67.6,199.4 75.4,203.9 75.4,194.9 67.6,190.3 67.6,181.3 75.4,185.8 83.2,190.3 83.2,181.3 " id="polygon678-6" style="fill:#7a563b" /><path id="polygon656-1" style="fill:#ba865c" d="M 145.7,253.7 153.6,258.3 161.4,262.8 V 253.4 L 153.6,248.9 145.7,244.4 Z"/><polygon points="83.2,235.6 75.4,231.1 75.4,240.1 67.6,235.6 67.6,244.6 75.4,249.2 83.2,253.7 83.2,262.7 91,267.3 91,258.2 98.8,262.8 98.8,253.7 91,249.2 83.2,244.6 " id="polygon679-1" style="fill:#7a563b" /><path id="polygon528-4" style="fill:#593d2a" d="M 75.4,202.21703 67.6,197.59657 V 208.4 L 75.4,213 Z"/><path id="polygon674-3" style="fill:#966d4b" d="M 59.8,212.9 67.6,217.5 V 208.4 197.59657 L 59.8,192.91381 V 203.9 Z"/><polygon points="91,258.2 91,267.3 98.8,271.8 98.8,262.8 " id="polygon680-7" style="fill:#593d2a" /><path id="polygon676-1" style="fill:#7a563b" d="M 67.6,208.4 V 216.7 L 59.8,212.1 V 222 L 67.6,226.5 75.4,231.1 V 222 213 Z"/><polygon points="98.8,262.8 98.8,271.8 106.7,276.3 106.7,267.3 " id="polygon681-6" style="fill:#7a563b" /><polygon points="67.6,163.2 59.8,158.6 59.8,167.7 67.6,172.2 " id="polygon682-5" style="fill:#593d2a" /><polygon points="59.8,240.1 59.8,249.1 67.6,253.7 67.6,244.6 " id="polygon683-0" style="fill:#7a563b" /><polygon points="75.4,249.2 75.4,258.2 83.2,262.7 83.2,253.7 " id="polygon684-4" style="fill:#ba865c" /><polygon points="67.6,244.6 67.6,253.7 75.4,258.2 75.4,249.2 " id="polygon685-5" style="fill:#593d2a" /><polygon points="83.2,199.4 83.2,190.3 75.4,185.8 67.6,181.3 67.6,190.3 75.4,194.9 " id="polygon686-1" style="fill:#ba865c" /><path id="polygon669-8" style="fill:#7a563b" d="M 161.4,262.8 169.2,267.3 V 258.3 L 161.4,253.4 Z"/></g><g id="g942"><polygon points="223.8,271.9 231.6,267.4 231.6,258.4 223.8,262.9 " id="polygon687" style="fill:#5c4c3e" /><polygon points="231.6,267.4 239.5,262.9 239.5,253.8 231.6,258.4 " id="polygon688" style="fill:#3c3026" /><polygon points="239.5,262.9 247.3,258.4 247.3,249.3 239.5,253.8 " id="polygon689" style="fill:#3c3026" /><polygon points="200.4,285.5 208.2,280.9 208.2,271.9 200.4,276.4 " id="polygon690" style="fill:#3c3026" /><polygon points="247.3,258.4 255.1,253.9 255.1,244.8 247.3,249.3 " id="polygon691" style="fill:#3c3026" /><polygon points="208.2,280.9 216,276.4 216,267.4 208.2,271.9 " id="polygon692" style="fill:#4b3d31" /><polygon points="216,276.4 223.8,271.9 223.8,262.9 216,267.4 " id="polygon693" style="fill:#4b3d31" /><polygon points="255.1,253.9 262.9,249.3 262.9,240.3 255.1,244.8 " id="polygon694" style="fill:#3c3026" /><polygon points="278.6,222.2 278.6,213.1 270.7,217.6 270.7,226.7 " id="polygon695" style="fill:#4b3d31" /><polygon points="270.7,154.2 262.9,158.7 262.9,167.8 270.7,163.3 " id="polygon696" style="fill:#2b211a" /><polygon points="200.4,267.4 200.4,276.4 208.2,271.9 208.2,262.8 " id="polygon697" style="fill:#4b3d31" /><polygon points="278.6,204 278.6,195 270.7,199.5 270.7,208.6 " id="polygon698" style="fill:#3c3026" /><polygon points="239.5,271.9 247.3,267.4 247.3,258.4 239.5,262.9 " id="polygon699" style="fill:#3c3026" /><polygon points="278.6,240.3 278.6,231.2 270.7,235.8 270.7,244.8 " id="polygon700" style="fill:#3c3026" /><polygon points="278.6,231.2 278.6,222.2 270.7,226.7 270.7,235.8 " id="polygon701" style="fill:#2b211a" /><polygon points="278.6,213.1 278.6,204 270.7,208.6 270.7,217.6 " id="polygon702" style="fill:#5c4c3e" /><polygon points="231.6,176.9 223.8,181.4 223.8,190.4 231.6,185.9 " id="polygon703" style="fill:#2b211a" /><polygon points="200.4,258.3 200.4,267.4 208.2,262.8 208.2,253.8 " id="polygon704" style="fill:#5c4c3e" /><polygon points="223.8,181.4 216,185.9 216,195 223.8,190.4 " id="polygon705" style="fill:#2b211a" /><polygon points="216,185.9 208.2,190.4 208.2,199.5 216,195 " id="polygon706" style="fill:#43673b" /><polygon points="262.9,158.7 255.1,163.3 255.1,172.3 262.9,167.8 " id="polygon707" style="fill:#3a6733" /><polygon points="247.3,167.8 239.5,172.3 239.5,181.4 247.3,176.9 " id="polygon708" style="fill:#2f5b2c" /><polygon points="255.1,163.3 247.3,167.8 247.3,176.9 255.1,172.3 " id="polygon709" style="fill:#2b211a" /><polygon points="239.5,172.3 231.6,176.9 231.6,185.9 239.5,181.4 " id="polygon710" style="fill:#2b211a" /><polygon points="200.4,240.2 200.4,249.3 208.2,244.7 208.2,235.7 " id="polygon711" style="fill:#4b3d31" /><polygon points="200.4,195 200.4,204 208.2,199.5 208.2,190.4 " id="polygon712" style="fill:#2b211a" /><polygon points="200.4,231.2 200.4,240.2 208.2,235.7 208.2,226.6 " id="polygon713" style="fill:#5c4c3e" /><polygon points="200.4,249.3 200.4,258.3 208.2,253.8 208.2,244.7 " id="polygon714" style="fill:#3c3026" /><polygon points="200.4,204 200.4,213.1 208.2,208.5 208.2,199.5 " id="polygon715" style="fill:#5c4c3e" /><polygon points="200.4,222.1 200.4,231.2 208.2,226.6 208.2,217.6 " id="polygon716" style="fill:#3c3026" /><polygon points="200.4,213.1 200.4,222.1 208.2,217.6 208.2,208.5 " id="polygon717" style="fill:#4b3d31" /><polygon points="278.6,195 278.6,185.9 270.7,190.4 270.7,199.5 " id="polygon718" style="fill:#3c3026" /><polygon points="192.6,271.9 192.6,280.9 200.4,276.4 200.4,267.4 " id="polygon719" style="fill:#3c3026" /><polygon points="192.6,262.8 192.6,271.9 200.4,267.4 200.4,258.3 " id="polygon720" style="fill:#3c3026" /><polygon points="192.6,208.5 192.6,217.6 200.4,213.1 200.4,204 " id="polygon721" style="fill:#4b3d31" /><polygon points="192.6,253.8 192.6,262.8 200.4,258.3 200.4,249.3 " id="polygon722" style="fill:#2b211a" /><polygon points="192.6,235.7 192.6,244.7 200.4,240.2 200.4,231.2 " id="polygon723" style="fill:#5c4c3e" /><polygon points="192.6,217.6 192.6,226.6 200.4,222.1 200.4,213.1 " id="polygon724" style="fill:#4b3d31" /><polygon points="192.6,226.6 192.6,235.7 200.4,231.2 200.4,222.1 " id="polygon725" style="fill:#3c3026" /><polygon points="192.6,244.7 192.6,253.8 200.4,249.3 200.4,240.2 " id="polygon726" style="fill:#3c3026" /><polygon points="192.6,280.9 192.6,290 200.4,285.5 200.4,276.4 " id="polygon727" style="fill:#4b3d31" /><polygon points="223.8,281 231.6,276.5 231.6,267.4 223.8,271.9 " id="polygon728" style="fill:#4b3d31" /><polygon points="231.6,276.5 239.5,271.9 239.5,262.9 231.6,267.4 " id="polygon729" style="fill:#4b3d31" /><polygon points="216,285.5 223.8,281 223.8,271.9 216,276.4 " id="polygon730" style="fill:#3c3026" /><polygon points="208.2,290 216,285.5 216,276.4 208.2,280.9 " id="polygon731" style="fill:#3c3026" /><polygon points="192.6,299 200.4,294.5 200.4,285.5 192.6,290 " id="polygon732" style="fill:#3c3026" /><polygon points="200.4,294.5 208.2,290 208.2,280.9 200.4,285.5 " id="polygon733" style="fill:#3c3026" /><polygon points="262.9,149.7 255.1,154.2 255.1,163.3 262.9,158.7 " id="polygon734" style="fill:#4a6f44" /><polygon points="270.7,145.1 262.9,149.7 262.9,158.7 270.7,154.2 " id="polygon735" style="fill:#4a6f44" /><polygon points="278.6,185.9 278.6,176.9 270.7,181.4 270.7,190.4 " id="polygon736" style="fill:#3c3026" /><polygon points="255.1,154.2 247.3,158.7 247.3,167.8 255.1,163.3 " id="polygon737" style="fill:#3f6d3a" /><polygon points="192.6,199.5 192.6,208.5 200.4,204 200.4,195 " id="polygon738" style="fill:#2b211a" /><polygon points="278.6,176.9 278.6,167.8 270.7,172.3 270.7,181.4 " id="polygon739" style="fill:#3c3026" /><polygon points="278.6,158.7 278.6,149.7 270.7,154.2 270.7,163.3 " id="polygon740" style="fill:#3c3026" /><polygon points="278.6,167.8 278.6,158.7 270.7,163.3 270.7,172.3 " id="polygon741" style="fill:#3c3026" /><polygon points="278.6,140.6 270.7,145.1 270.7,154.2 278.6,149.7 " id="polygon742" style="fill:#2b211a" /><polygon points="208.2,181.4 200.4,185.9 200.4,195 208.2,190.4 " id="polygon743" style="fill:#315b2c" /><polygon points="216,176.9 208.2,181.4 208.2,190.4 216,185.9 " id="polygon744" style="fill:#43673b" /><polygon points="192.6,190.4 192.6,199.5 200.4,195 200.4,185.9 " id="polygon745" style="fill:#4a6f44" /><polygon points="239.5,163.3 231.6,167.8 231.6,176.9 239.5,172.3 " id="polygon746" style="fill:#2b211a" /><polygon points="247.3,158.7 239.5,163.3 239.5,172.3 247.3,167.8 " id="polygon747" style="fill:#3a6733" /><polygon points="231.6,167.8 223.8,172.3 223.8,181.4 231.6,176.9 " id="polygon748" style="fill:#386330" /><polygon points="223.8,172.3 216,176.9 216,185.9 223.8,181.4 " id="polygon749" style="fill:#2b211a" /><polygon points="262.9,249.3 270.7,244.8 270.7,235.8 262.9,240.3 " id="polygon750" style="fill:#3c3026" /><polygon points="216,213.1 216,222.1 223.8,217.6 223.8,208.5 " id="polygon751" style="fill:#3c3026" /><polygon points="231.6,195 223.8,199.5 223.8,208.5 231.6,204 " id="polygon752" style="fill:#2b211a" /><polygon points="255.1,199.5 255.1,190.4 247.3,195 247.3,204 " id="polygon753" style="fill:#3c3026" /><polygon points="216,222.1 216,231.2 223.8,226.7 223.8,217.6 " id="polygon754" style="fill:#4b3d31" /><polygon points="216,204 216,213.1 223.8,208.5 223.8,199.5 " id="polygon755" style="fill:#4b3d31" /><polygon points="262.9,222.2 262.9,213.1 255.1,217.6 255.1,226.7 " id="polygon756" style="fill:#3c3026" /><polygon points="247.3,185.9 239.5,190.4 239.5,199.5 247.3,195 " id="polygon757" style="fill:#2b211a" /><polygon points="239.5,190.4 231.6,195 231.6,204 239.5,199.5 " id="polygon758" style="fill:#2b211a" /><polygon points="216,231.2 216,240.2 223.8,235.7 223.8,226.7 " id="polygon759" style="fill:#4b3d31" /><polygon points="239.5,244.8 247.3,240.3 247.3,231.2 239.5,235.7 " id="polygon760" style="fill:#2b211a" /><polygon points="247.3,240.3 255.1,235.7 255.1,226.7 247.3,231.2 " id="polygon761" style="fill:#5c4c3e" /><polygon points="262.9,231.2 262.9,222.2 255.1,226.7 255.1,235.7 " id="polygon762" style="fill:#5c4c3e" /><polygon points="223.8,253.8 231.6,249.3 231.6,240.2 223.8,244.8 " id="polygon763" style="fill:#5c4c3e" /><polygon points="231.6,249.3 239.5,244.8 239.5,235.7 231.6,240.2 " id="polygon764" style="fill:#4b3d31" /><polygon points="216,258.3 223.8,253.8 223.8,244.8 216,249.3 " id="polygon765" style="fill:#3c3026" /><polygon points="216,240.2 216,249.3 223.8,244.8 223.8,235.7 " id="polygon766" style="fill:#2b211a" /><polygon points="255.1,181.4 247.3,185.9 247.3,195 255.1,190.4 " id="polygon767" style="fill:#3c3026" /><polygon points="255.1,208.6 255.1,199.5 247.3,204 247.3,213.1 " id="polygon768" style="fill:#2b211a" /><polygon points="247.3,195 239.5,199.5 239.5,208.6 247.3,204 " id="polygon769" style="fill:#5c4c3e" /><polygon points="239.5,199.5 231.6,204 231.6,213.1 239.5,208.6 " id="polygon770" style="fill:#5c4c3e" /><polygon points="270.7,172.3 270.7,163.3 262.9,167.8 262.9,176.9 " id="polygon771" style="fill:#363d49" /><polygon points="231.6,213.1 231.6,222.1 239.5,217.6 239.5,208.6 " id="polygon772" style="fill:#3c3026" /><polygon points="231.6,231.2 239.5,226.7 239.5,217.6 231.6,222.1 " id="polygon773" style="fill:#2b211a" /><polygon points="247.3,222.1 247.3,213.1 239.5,217.6 239.5,226.7 " id="polygon774" style="fill:#3c3026" /><polygon points="223.8,208.5 223.8,217.6 231.6,213.1 231.6,204 " id="polygon775" style="fill:#3c3026" /><polygon points="223.8,217.6 223.8,226.7 231.6,222.1 231.6,213.1 " id="polygon776" style="fill:#3c3026" /><polygon points="255.1,226.7 255.1,217.6 247.3,222.1 247.3,231.2 " id="polygon777" style="fill:#3c3026" /><polygon points="255.1,217.6 255.1,208.6 247.3,213.1 247.3,222.1 " id="polygon778" style="fill:#4b3d31" /><polygon points="239.5,235.7 247.3,231.2 247.3,222.1 239.5,226.7 " id="polygon779" style="fill:#3c3026" /><polygon points="231.6,240.2 239.5,235.7 239.5,226.7 231.6,231.2 " id="polygon780" style="fill:#3c3026" /><polygon points="223.8,226.7 223.8,235.7 231.6,231.2 231.6,222.1 " id="polygon781" style="fill:#3c3026" /><polygon points="223.8,244.8 231.6,240.2 231.6,231.2 223.8,235.7 " id="polygon782" style="fill:#2b211a" /><polygon points="247.3,213.1 247.3,204 239.5,208.6 239.5,217.6 " id="polygon783" style="fill:#4b3d31" /><polygon points="231.6,258.4 239.5,253.8 239.5,244.8 231.6,249.3 " id="polygon784" style="fill:#4b3d31" /><polygon points="239.5,253.8 247.3,249.3 247.3,240.3 239.5,244.8 " id="polygon785" style="fill:#363d49" /><polygon points="255.1,244.8 262.9,240.3 262.9,231.2 255.1,235.7 " id="polygon786" style="fill:#4b3d31" /><polygon points="247.3,249.3 255.1,244.8 255.1,235.7 247.3,240.3 " id="polygon787" style="fill:#4b3d31" /><polygon points="223.8,262.9 231.6,258.4 231.6,249.3 223.8,253.8 " id="polygon788" style="fill:#3c3026" /><polygon points="208.2,271.9 216,267.4 216,258.3 208.2,262.8 " id="polygon789" style="fill:#4b3d31" /><polygon points="216,267.4 223.8,262.9 223.8,253.8 216,258.3 " id="polygon790" style="fill:#5c4c3e" /><polygon points="270.7,199.5 270.7,190.4 262.9,195 262.9,204 " id="polygon791" style="fill:#4b3d31" /><polygon points="262.9,213.1 262.9,204 255.1,208.6 255.1,217.6 " id="polygon792" style="fill:#4b3d31" /><polygon points="270.7,235.8 270.7,226.7 262.9,231.2 262.9,240.3 " id="polygon793" style="fill:#3c3026" /><polygon points="208.2,253.8 208.2,262.8 216,258.3 216,249.3 " id="polygon794" style="fill:#5c4c3e" /><polygon points="270.7,181.4 270.7,172.3 262.9,176.9 262.9,185.9 " id="polygon795" style="fill:#2b211a" /><polygon points="270.7,226.7 270.7,217.6 262.9,222.2 262.9,231.2 " id="polygon796" style="fill:#2b211a" /><polygon points="270.7,208.6 270.7,199.5 262.9,204 262.9,213.1 " id="polygon797" style="fill:#3c3026" /><polygon points="270.7,217.6 270.7,208.6 262.9,213.1 262.9,222.2 " id="polygon798" style="fill:#3c3026" /><polygon points="270.7,190.4 270.7,181.4 262.9,185.9 262.9,195 " id="polygon799" style="fill:#5c4c3e" /><polygon points="255.1,172.3 247.3,176.9 247.3,185.9 255.1,181.4 " id="polygon800" style="fill:#2b211a" /><polygon points="262.9,167.8 255.1,172.3 255.1,181.4 262.9,176.9 " id="polygon801" style="fill:#2b211a" /><polygon points="239.5,181.4 231.6,185.9 231.6,195 239.5,190.4 " id="polygon802" style="fill:#3c3026" /><polygon points="247.3,176.9 239.5,181.4 239.5,190.4 247.3,185.9 " id="polygon803" style="fill:#2b211a" /><polygon points="262.9,204 262.9,195 255.1,199.5 255.1,208.6 " id="polygon804" style="fill:#4b3d31" /><polygon points="262.9,185.9 262.9,176.9 255.1,181.4 255.1,190.4 " id="polygon805" style="fill:#3c3026" /><polygon points="262.9,195 262.9,185.9 255.1,190.4 255.1,199.5 " id="polygon806" style="fill:#5c4c3e" /><polygon points="208.2,217.6 208.2,226.6 216,222.1 216,213.1 " id="polygon807" style="fill:#434c5a" /><polygon points="208.2,226.6 208.2,235.7 216,231.2 216,222.1 " id="polygon808" style="fill:#4b3d31" /><polygon points="208.2,244.7 208.2,253.8 216,249.3 216,240.2 " id="polygon809" style="fill:#3c3026" /><polygon points="208.2,235.7 208.2,244.7 216,240.2 216,231.2 " id="polygon810" style="fill:#3c3026" /><polygon points="231.6,185.9 223.8,190.4 223.8,199.5 231.6,195 " id="polygon811" style="fill:#3c3026" /><polygon points="208.2,208.5 208.2,217.6 216,213.1 216,204 " id="polygon812" style="fill:#3c3026" /><polygon points="223.8,190.4 216,195 216,204 223.8,199.5 " id="polygon813" style="fill:#4b3d31" /><polygon points="208.2,199.5 208.2,208.5 216,204 216,195 " id="polygon814" style="fill:#2b211a" /><polygon points="200.4,176.9 192.6,181.4 192.6,190.4 200.4,185.9 " id="polygon815" style="fill:#3a6733" /><polygon points="177,217.6 177,226.6 184.8,222.1 184.8,213.1 " id="polygon816" style="fill:#4b3d31" /><polygon points="177,235.7 177,244.7 184.8,240.2 184.8,231.1 " id="polygon817" style="fill:#5c4c3e" /><polygon points="177,208.5 177,217.6 184.8,213.1 184.8,204 " id="polygon818" style="fill:#2b211a" /><polygon points="177,226.6 177,235.7 184.8,231.1 184.8,222.1 " id="polygon819" style="fill:#3c3026" /><polygon points="247.3,267.4 255.1,262.9 255.1,253.9 247.3,258.4 " id="polygon820" style="fill:#2b211a" /><polygon points="192.6,172.3 184.8,176.9 184.8,185.9 192.6,181.4 " id="polygon821" style="fill:#3a6733" /><polygon points="177,190.4 177,199.5 184.8,195 184.8,185.9 " id="polygon822" style="fill:#3a6733" /><polygon points="177,308 177,317.1 184.8,312.6 184.8,303.5 " id="polygon823" style="fill:#4b3d31" /><polygon points="177,280.9 177,289.9 184.8,285.4 184.8,276.4 " id="polygon824" style="fill:#4b3d31" /><polygon points="177,289.9 177,299 184.8,294.5 184.8,285.4 " id="polygon825" style="fill:#3c3026" /><polygon points="177,299 177,308 184.8,303.5 184.8,294.5 " id="polygon826" style="fill:#3c3026" /><polygon points="177,253.8 177,262.8 184.8,258.3 184.8,249.2 " id="polygon827" style="fill:#4b3d31" /><polygon points="177,244.7 177,253.8 184.8,249.2 184.8,240.2 " id="polygon828" style="fill:#3c3026" /><polygon points="177,271.8 177,280.9 184.8,276.4 184.8,267.3 " id="polygon829" style="fill:#3c3026" /><polygon points="177,262.8 177,271.8 184.8,267.3 184.8,258.3 " id="polygon830" style="fill:#3c3026" /><polygon points="294.2,149.7 294.2,140.6 286.4,145.1 286.4,154.2 " id="polygon831" style="fill:#2b211a" /><polygon points="278.6,122.5 270.7,127 270.7,136.1 278.6,131.5 " id="polygon832" style="fill:#315b2c" /><polygon points="270.7,127 262.9,131.6 262.9,140.6 270.7,136.1 " id="polygon833" style="fill:#315b2c" /><polygon points="286.4,117.9 278.6,122.5 278.6,131.5 286.4,127 " id="polygon834" style="fill:#315b2c" /><polygon points="294.2,140.6 294.2,131.5 286.4,136.1 286.4,145.1 " id="polygon835" style="fill:#325e2d" /><polygon points="262.9,131.6 255.1,136.1 255.1,145.2 262.9,140.6 " id="polygon836" style="fill:#315b2c" /><polygon points="294.2,113.4 286.4,117.9 286.4,127 294.2,122.5 " id="polygon837" style="fill:#2c5427" /><polygon points="294.2,131.5 294.2,122.5 286.4,127 286.4,136.1 " id="polygon838" style="fill:#325e2d" /><polygon points="255.1,136.1 247.3,140.6 247.3,149.7 255.1,145.2 " id="polygon839" style="fill:#335f2e" /><polygon points="216,158.8 208.2,163.3 208.2,172.3 216,167.8 " id="polygon840" style="fill:#315b2c" /><polygon points="223.8,154.2 216,158.8 216,167.8 223.8,163.3 " id="polygon841" style="fill:#3a6733" /><polygon points="208.2,163.3 200.4,167.8 200.4,176.9 208.2,172.3 " id="polygon842" style="fill:#315b2c" /><polygon points="247.3,140.6 239.5,145.2 239.5,154.2 247.3,149.7 " id="polygon843" style="fill:#3f6d3a" /><polygon points="200.4,167.8 192.6,172.3 192.6,181.4 200.4,176.9 " id="polygon844" style="fill:#3a6733" /><polygon points="239.5,145.2 231.6,149.7 231.6,158.8 239.5,154.2 " id="polygon845" style="fill:#335f2e" /><polygon points="231.6,149.7 223.8,154.2 223.8,163.3 231.6,158.8 " id="polygon846" style="fill:#2c5427" /><polygon points="177,199.5 177,208.5 184.8,204 184.8,195 " id="polygon847" style="fill:#3a6733" /><polygon points="302.1,199.5 302.1,190.5 294.2,195 294.2,204 " id="polygon848" style="fill:#4b3d31" /><polygon points="302.1,208.6 302.1,199.5 294.2,204 294.2,213.1 " id="polygon849" style="fill:#3c3026" /><polygon points="302.1,190.5 302.1,181.4 294.2,185.9 294.2,195 " id="polygon850" style="fill:#3c3026" /><polygon points="302.1,226.7 302.1,217.7 294.2,222.2 294.2,231.2 " id="polygon851" style="fill:#5c4c3e" /><polygon points="302.1,235.8 302.1,226.7 294.2,231.2 294.2,240.3 " id="polygon852" style="fill:#4b3d31" /><polygon points="302.1,244.9 302.1,235.8 294.2,240.3 294.2,249.4 " id="polygon853" style="fill:#4b3d31" /><polygon points="302.1,181.4 302.1,172.3 294.2,176.9 294.2,185.9 " id="polygon854" style="fill:#4b3d31" /><polygon points="302.1,217.7 302.1,208.6 294.2,213.1 294.2,222.2 " id="polygon855" style="fill:#2b211a" /><polygon points="302.1,172.3 302.1,163.3 294.2,167.8 294.2,176.9 " id="polygon856" style="fill:#4b3d31" /><polygon points="294.2,122.5 302.1,117.9 302.1,108.9 294.2,113.4 " id="polygon857" style="fill:#315b2c" /><polygon points="302.1,136.1 302.1,127 294.2,131.5 294.2,140.6 " id="polygon858" style="fill:#2b211a" /><polygon points="302.1,127 302.1,117.9 294.2,122.5 294.2,131.5 " id="polygon859" style="fill:#325e2d" /><polygon points="302.1,145.1 302.1,136.1 294.2,140.6 294.2,149.7 " id="polygon860" style="fill:#3c3026" /><polygon points="302.1,163.3 302.1,154.2 294.2,158.7 294.2,167.8 " id="polygon861" style="fill:#5c4c3e" /><polygon points="302.1,154.2 302.1,145.1 294.2,149.7 294.2,158.7 " id="polygon862" style="fill:#3c3026" /><polygon points="231.6,294.6 239.5,290.1 239.5,281 231.6,285.5 " id="polygon863" style="fill:#3c3026" /><polygon points="216,303.6 223.8,299.1 223.8,290 216,294.5 " id="polygon864" style="fill:#3c3026" /><polygon points="177,326.1 184.8,321.6 184.8,312.6 177,317.1 " id="polygon865" style="fill:#4b3d31" /><polygon points="223.8,299.1 231.6,294.6 231.6,285.5 223.8,290 " id="polygon866" style="fill:#434c5a" /><polygon points="208.2,308.1 216,303.6 216,294.5 208.2,299.1 " id="polygon867" style="fill:#4b3d31" /><polygon points="184.8,321.6 192.6,317.1 192.6,308.1 184.8,312.6 " id="polygon868" style="fill:#3c3026" /><polygon points="200.4,312.6 208.2,308.1 208.2,299.1 200.4,303.6 " id="polygon869" style="fill:#4b3d31" /><polygon points="192.6,317.1 200.4,312.6 200.4,303.6 192.6,308.1 " id="polygon870" style="fill:#5c4c3e" /><polygon points="239.5,290.1 247.3,285.5 247.3,276.5 239.5,281 " id="polygon871" style="fill:#4b3d31" /><polygon points="270.7,272 278.6,267.5 278.6,258.4 270.7,262.9 " id="polygon872" style="fill:#4b3d31" /><polygon points="278.6,267.5 286.4,263 286.4,253.9 278.6,258.4 " id="polygon873" style="fill:#4b3d31" /><polygon points="286.4,263 294.2,258.4 294.2,249.4 286.4,253.9 " id="polygon874" style="fill:#3c3026" /><polygon points="302.1,253.9 302.1,244.9 294.2,249.4 294.2,258.4 " id="polygon875" style="fill:#2b211a" /><polygon points="247.3,285.5 255.1,281 255.1,272 247.3,276.5 " id="polygon876" style="fill:#4b3d31" /><polygon points="255.1,281 262.9,276.5 262.9,267.5 255.1,272 " id="polygon877" style="fill:#3c3026" /><polygon points="262.9,276.5 270.7,272 270.7,262.9 262.9,267.5 " id="polygon878" style="fill:#3c3026" /><polygon points="177,181.4 177,190.4 184.8,185.9 184.8,176.9 " id="polygon879" style="fill:#3a6733" /><polygon points="255.1,145.2 247.3,149.7 247.3,158.7 255.1,154.2 " id="polygon880" style="fill:#4a6f44" /><polygon points="294.2,158.7 294.2,149.7 286.4,154.2 286.4,163.3 " id="polygon881" style="fill:#2b211a" /><polygon points="231.6,158.8 223.8,163.3 223.8,172.3 231.6,167.8 " id="polygon882" style="fill:#335f2e" /><polygon points="239.5,154.2 231.6,158.8 231.6,167.8 239.5,163.3 " id="polygon883" style="fill:#2c5427" /><polygon points="278.6,131.5 270.7,136.1 270.7,145.1 278.6,140.6 " id="polygon884" style="fill:#315b2c" /><polygon points="262.9,140.6 255.1,145.2 255.1,154.2 262.9,149.7 " id="polygon885" style="fill:#4a6f44" /><polygon points="270.7,136.1 262.9,140.6 262.9,149.7 270.7,145.1 " id="polygon886" style="fill:#3a6733" /><polygon points="184.8,213.1 184.8,222.1 192.6,217.6 192.6,208.5 " id="polygon887" style="fill:#3c3026" /><polygon points="184.8,204 184.8,213.1 192.6,208.5 192.6,199.5 " id="polygon888" style="fill:#363d49" /><polygon points="184.8,195 184.8,204 192.6,199.5 192.6,190.4 " id="polygon889" style="fill:#2b211a" /><polygon points="286.4,127 278.6,131.5 278.6,140.6 286.4,136.1 " id="polygon890" style="fill:#3a6733" /><polygon points="208.2,172.3 200.4,176.9 200.4,185.9 208.2,181.4 " id="polygon891" style="fill:#3a6733" /><polygon points="184.8,185.9 184.8,195 192.6,190.4 192.6,181.4 " id="polygon892" style="fill:#36622f" /><polygon points="216,167.8 208.2,172.3 208.2,181.4 216,176.9 " id="polygon893" style="fill:#3a6733" /><polygon points="223.8,163.3 216,167.8 216,176.9 223.8,172.3 " id="polygon894" style="fill:#2b211a" /><polygon points="255.1,262.9 262.9,258.4 262.9,249.3 255.1,253.9 " id="polygon895" style="fill:#5c4c3e" /><polygon points="286.4,235.8 286.4,226.7 278.6,231.2 278.6,240.3 " id="polygon896" style="fill:#3c3026" /><polygon points="286.4,217.6 286.4,208.6 278.6,213.1 278.6,222.2 " id="polygon897" style="fill:#4b3d31" /><polygon points="286.4,226.7 286.4,217.6 278.6,222.2 278.6,231.2 " id="polygon898" style="fill:#4b3d31" /><polygon points="286.4,244.8 286.4,235.8 278.6,240.3 278.6,249.4 " id="polygon899" style="fill:#5c4c3e" /><polygon points="184.8,222.1 184.8,231.1 192.6,226.6 192.6,217.6 " id="polygon900" style="fill:#2b211a" /><polygon points="262.9,258.4 270.7,253.9 270.7,244.8 262.9,249.3 " id="polygon901" style="fill:#2b211a" /><polygon points="270.7,253.9 278.6,249.4 278.6,240.3 270.7,244.8 " id="polygon902" style="fill:#3c3026" /><polygon points="286.4,181.4 286.4,172.3 278.6,176.9 278.6,185.9 " id="polygon903" style="fill:#4b3d31" /><polygon points="286.4,163.3 286.4,154.2 278.6,158.7 278.6,167.8 " id="polygon904" style="fill:#4b3d31" /><polygon points="286.4,172.3 286.4,163.3 278.6,167.8 278.6,176.9 " id="polygon905" style="fill:#3c3026" /><polygon points="286.4,208.6 286.4,199.5 278.6,204 278.6,213.1 " id="polygon906" style="fill:#5c4c3e" /><polygon points="286.4,154.2 286.4,145.1 278.6,149.7 278.6,158.7 " id="polygon907" style="fill:#2b211a" /><polygon points="286.4,199.5 286.4,190.5 278.6,195 278.6,204 " id="polygon908" style="fill:#3c3026" /><polygon points="286.4,145.1 286.4,136.1 278.6,140.6 278.6,149.7 " id="polygon909" style="fill:#315b2c" /><polygon points="286.4,190.5 286.4,181.4 278.6,185.9 278.6,195 " id="polygon910" style="fill:#3c3026" /><polygon points="247.3,149.7 239.5,154.2 239.5,163.3 247.3,158.7 " id="polygon911" style="fill:#2c5427" /><polygon points="294.2,249.4 294.2,240.3 286.4,244.8 286.4,253.9 " id="polygon912" style="fill:#4b3d31" /><polygon points="294.2,240.3 294.2,231.2 286.4,235.8 286.4,244.8 " id="polygon913" style="fill:#4b3d31" /><polygon points="278.6,258.4 286.4,253.9 286.4,244.8 278.6,249.4 " id="polygon914" style="fill:#3c3026" /><polygon points="184.8,231.1 184.8,240.2 192.6,235.7 192.6,226.6 " id="polygon915" style="fill:#3c3026" /><polygon points="270.7,262.9 278.6,258.4 278.6,249.4 270.7,253.9 " id="polygon916" style="fill:#3c3026" /><polygon points="294.2,231.2 294.2,222.2 286.4,226.7 286.4,235.8 " id="polygon917" style="fill:#5c4c3e" /><polygon points="262.9,267.5 270.7,262.9 270.7,253.9 262.9,258.4 " id="polygon918" style="fill:#4b3d31" /><polygon points="255.1,272 262.9,267.5 262.9,258.4 255.1,262.9 " id="polygon919" style="fill:#3c3026" /><polygon points="294.2,176.9 294.2,167.8 286.4,172.3 286.4,181.4 " id="polygon920" style="fill:#3c3026" /><polygon points="294.2,222.2 294.2,213.1 286.4,217.6 286.4,226.7 " id="polygon921" style="fill:#3c3026" /><polygon points="294.2,167.8 294.2,158.7 286.4,163.3 286.4,172.3 " id="polygon922" style="fill:#3c3026" /><polygon points="294.2,185.9 294.2,176.9 286.4,181.4 286.4,190.5 " id="polygon923" style="fill:#4b3d31" /><polygon points="294.2,213.1 294.2,204 286.4,208.6 286.4,217.6 " id="polygon924" style="fill:#434c5a" /><polygon points="294.2,204 294.2,195 286.4,199.5 286.4,208.6 " id="polygon925" style="fill:#3c3026" /><polygon points="294.2,195 294.2,185.9 286.4,190.5 286.4,199.5 " id="polygon926" style="fill:#2b211a" /><polygon points="247.3,276.5 255.1,272 255.1,262.9 247.3,267.4 " id="polygon927" style="fill:#5c4c3e" /><polygon points="184.8,267.3 184.8,276.4 192.6,271.9 192.6,262.8 " id="polygon928" style="fill:#4b3d31" /><polygon points="184.8,276.4 184.8,285.4 192.6,280.9 192.6,271.9 " id="polygon929" style="fill:#3c3026" /><polygon points="184.8,294.5 184.8,303.5 192.6,299 192.6,290 " id="polygon930" style="fill:#4b3d31" /><polygon points="184.8,285.4 184.8,294.5 192.6,290 192.6,280.9 " id="polygon931" style="fill:#2b211a" /><polygon points="184.8,240.2 184.8,249.2 192.6,244.7 192.6,235.7 " id="polygon932" style="fill:#3c3026" /><polygon points="184.8,258.3 184.8,267.3 192.6,262.8 192.6,253.8 " id="polygon933" style="fill:#4b3d31" /><polygon points="239.5,281 247.3,276.5 247.3,267.4 239.5,271.9 " id="polygon934" style="fill:#5c4c3e" /><polygon points="184.8,249.2 184.8,258.3 192.6,253.8 192.6,244.7 " id="polygon935" style="fill:#3c3026" /><polygon points="223.8,290 231.6,285.5 231.6,276.5 223.8,281 " id="polygon936" style="fill:#3c3026" /><polygon points="231.6,285.5 239.5,281 239.5,271.9 231.6,276.5 " id="polygon937" style="fill:#2b211a" /><polygon points="184.8,312.6 192.6,308.1 192.6,299 184.8,303.5 " id="polygon938" style="fill:#3c3026" /><polygon points="216,294.5 223.8,290 223.8,281 216,285.5 " id="polygon939" style="fill:#2b211a" /><polygon points="192.6,308.1 200.4,303.6 200.4,294.5 192.6,299 " id="polygon940" style="fill:#2b211a" /><polygon points="200.4,303.6 208.2,299.1 208.2,290 200.4,294.5 " id="polygon941" style="fill:#5c4c3e" /><polygon points="208.2,299.1 216,294.5 216,285.5 208.2,290 " id="polygon942" style="fill:#3c3026" /></g></svg>